<?xml version="1.0" encoding="UTF-8"?>
<!DOCTYPE svg PUBLIC "-//W3C//DTD SVG 1.1//EN" "http://www.w3.org/Graphics/SVG/1.1/DTD/svg11.dtd">
<!-- Creator: CorelDRAW 2020 (64-Bit) -->
<svg xmlns="http://www.w3.org/2000/svg" xml:space="preserve" width="21.4309mm" height="21.4313mm" version="1.1" style="shape-rendering:geometricPrecision; text-rendering:geometricPrecision; image-rendering:optimizeQuality; fill-rule:evenodd; clip-rule:evenodd"
viewBox="0 0 49.72 49.72"
 xmlns:xlink="http://www.w3.org/1999/xlink"
 xmlns:xodm="http://www.corel.com/coreldraw/odm/2003">
 <defs>
  <style type="text/css">
   <![CDATA[
    .fil0 {fill:#FC7300;fill-rule:nonzero}
   ]]>
  </style>
 </defs>
 <g id="Capa_x0020_1">
  <metadata id="CorelCorpID_0Corel-Layer"/>
  <path class="fil0" d="M46.95 0l-44.19 0c-1.52,0 -2.76,1.24 -2.76,2.76l0 44.19c0,1.53 1.24,2.76 2.76,2.76l23.79 0 0 -19.22 -6.46 0 0 -7.53 6.46 0 0 -5.52c0,-6.42 3.92,-9.92 9.67,-9.92 1.93,-0.01 3.86,0.09 5.79,0.3l0 6.68 -3.96 0c-3.12,0 -3.72,1.49 -3.72,3.66l0 4.79 7.45 -0 -0.97 7.53 -6.48 0 0 19.24 12.63 0c1.53,-0 2.76,-1.24 2.76,-2.76l0 -44.19c0,-1.53 -1.24,-2.76 -2.76,-2.76z"/>
 </g>
</svg>
