<?xml version="1.0" encoding="UTF-8"?>
<!DOCTYPE svg PUBLIC "-//W3C//DTD SVG 1.1//EN" "http://www.w3.org/Graphics/SVG/1.1/DTD/svg11.dtd">
<!-- Creator: CorelDRAW 2020 (64-Bit) -->
<svg xmlns="http://www.w3.org/2000/svg" xml:space="preserve" width="26.0058mm" height="26.0058mm" version="1.1" style="shape-rendering:geometricPrecision; text-rendering:geometricPrecision; image-rendering:optimizeQuality; fill-rule:evenodd; clip-rule:evenodd"
viewBox="0 0 79.74 79.74"
 xmlns:xlink="http://www.w3.org/1999/xlink"
 xmlns:xodm="http://www.corel.com/coreldraw/odm/2003">
 <defs>
  <style type="text/css">
   <![CDATA[
    .fil0 {fill:#FC7300;fill-rule:nonzero}
   ]]>
  </style>
 </defs>
 <g id="Capa_x0020_1">
  <metadata id="CorelCorpID_0Corel-Layer"/>
  <path class="fil0" d="M23.25 0c-12.82,0 -23.25,10.44 -23.25,23.26l0 33.22c0,12.82 10.44,23.26 23.26,23.26l33.22 0c12.82,0 23.26,-10.44 23.26,-23.26l0 -33.23c0,-12.82 -10.44,-23.25 -23.26,-23.25l-33.23 0zm40.54 12.76c1.76,0 3.19,1.43 3.19,3.19 0,1.76 -1.43,3.19 -3.19,3.19 -1.76,0 -3.19,-1.43 -3.19,-3.19 0,-1.76 1.43,-3.19 3.19,-3.19zm-23.92 6.38c11.43,0 20.73,9.3 20.73,20.73 0,11.43 -9.3,20.73 -20.73,20.73 -11.43,0 -20.73,-9.3 -20.73,-20.73 0,-11.43 9.3,-20.73 20.73,-20.73zm0 6.38c-7.93,0 -14.35,6.43 -14.35,14.35 0,7.93 6.43,14.35 14.35,14.35 7.93,0 14.35,-6.43 14.35,-14.35 0,-7.93 -6.43,-14.35 -14.35,-14.35z"/>
 </g>
</svg>
