<?xml version="1.0" encoding="UTF-8"?>
<!DOCTYPE svg PUBLIC "-//W3C//DTD SVG 1.1//EN" "http://www.w3.org/Graphics/SVG/1.1/DTD/svg11.dtd">
<!-- Creator: CorelDRAW 2020 (64-Bit) -->
<svg xmlns="http://www.w3.org/2000/svg" xml:space="preserve" width="24.3217mm" height="19.7554mm" version="1.1" style="shape-rendering:geometricPrecision; text-rendering:geometricPrecision; image-rendering:optimizeQuality; fill-rule:evenodd; clip-rule:evenodd"
viewBox="0 0 55.99 45.48"
 xmlns:xlink="http://www.w3.org/1999/xlink"
 xmlns:xodm="http://www.corel.com/coreldraw/odm/2003">
 <defs>
  <style type="text/css">
   <![CDATA[
    .fil0 {fill:#FC7300;fill-rule:nonzero}
   ]]>
  </style>
 </defs>
 <g id="Capa_x0020_1">
  <metadata id="CorelCorpID_0Corel-Layer"/>
  <path class="fil0" d="M50.24 11.33c0.04,0.5 0.04,0.99 0.04,1.49 0,15.17 -11.55,32.66 -32.65,32.66 -6.5,0 -12.54,-1.88 -17.63,-5.15 0.92,0.11 1.81,0.14 2.77,0.14 0.02,-0 0.04,-0 0.06,-0 5.15,0 10.15,-1.73 14.19,-4.9 -4.91,-0.09 -9.22,-3.29 -10.73,-7.96 0.71,0.11 1.42,0.18 2.17,0.18 1.03,0 2.06,-0.14 3.02,-0.39 -5.35,-1.08 -9.2,-5.79 -9.2,-11.25 0,-0 0,-0.01 0,-0.02l0 -0.14c1.53,0.85 3.31,1.38 5.19,1.46 -3.19,-2.12 -5.12,-5.71 -5.12,-9.54 0,-0 0,-0.01 0,-0.01 0,-2.13 0.57,-4.09 1.56,-5.79 5.83,7.17 14.44,11.54 23.66,12.01 -0.18,-0.86 -0.29,-1.74 -0.29,-2.63 0,0 0,-0 0,-0 0,-6.33 5.14,-11.47 11.47,-11.47 0,0 0,0 0.01,0 3.31,0 6.29,1.38 8.39,3.63 2.57,-0.5 5.03,-1.44 7.28,-2.77 -0.86,2.65 -2.65,4.9 -5.05,6.33 2.27,-0.26 4.51,-0.86 6.61,-1.78 -1.57,2.29 -3.52,4.3 -5.75,5.94z"/>
 </g>
</svg>
