<?xml version="1.0" encoding="UTF-8"?>
<!DOCTYPE svg PUBLIC "-//W3C//DTD SVG 1.1//EN" "http://www.w3.org/Graphics/SVG/1.1/DTD/svg11.dtd">
<!-- Creator: CorelDRAW 2020 (64-Bit) -->
<svg xmlns="http://www.w3.org/2000/svg" xml:space="preserve" width="204.179mm" height="29.4207mm" version="1.1" style="shape-rendering:geometricPrecision; text-rendering:geometricPrecision; image-rendering:optimizeQuality; fill-rule:evenodd; clip-rule:evenodd"
viewBox="0 0 33547.87 4834"
 xmlns:xlink="http://www.w3.org/1999/xlink"
 xmlns:xodm="http://www.corel.com/coreldraw/odm/2003">
 <defs>
  <style type="text/css">
   <![CDATA[
    .fil0 {fill:#00425A}
    .fil1 {fill:#FC7300}
    .fil2 {fill:#00425A;fill-rule:nonzero}
    .fil3 {fill:#1F8A70;fill-rule:nonzero}
   ]]>
  </style>
 </defs>
 <g id="Capa_x0020_1">
  <metadata id="CorelCorpID_0Corel-Layer"/>
  <path class="fil0" d="M53.1 780.55c570.34,-339.92 428.99,-466.24 1178.35,-476.88 3.04,1063.82 154.02,2774.82 -180.13,3721.6l853.5 -2.58c-90.91,-252.13 -172.11,-462.41 -172.11,-744.16l-0.03 -2975.09c464.1,-0.31 532.09,-53.43 825.11,180.7 568.47,454.27 567.74,429.41 567.58,1627.75 -0.1,609.97 128.52,2213.01 -190.61,2659.99l879.27 26.58c-205.42,-582.66 -268,-1265.95 -162.79,-1887.5 1184.55,-64.33 793.48,103.55 1259.88,321.47l0.28 -898.97c-562.37,246.06 -55.22,343.51 -1259.28,323.44l-23 -1584.6 984.33 -13.33 533.62 490.78 6.79 -740.99 -2208.41 -15.43 0.07 -757.32c-701.88,-62.04 -2118.7,-25.4 -2892.48,-23.96l0.07 768.49z"/>
  <path class="fil0" d="M2779.68 4516.33l3.17 -1867.04 -415.76 -14.92 0.07 1683.2 -1886.17 21.08 -0.41 -2960.86 -461.91 -0.15c5.41,3803.11 -307.73,3436.33 1434.41,3437.02 525.14,0.2 998.59,132.6 1326.61,-298.33z"/>
  <polygon class="fil1" points="21972.99,1886.94 22088.47,2120.24 22203.92,2353.54 22088.47,2586.84 21972.99,2820.13 21857.52,2586.84 21742.04,2353.54 21857.52,2120.24 "/>
  <polygon class="fil1" points="22788.99,1905.77 22904.46,2139.07 23019.93,2372.37 22904.46,2605.67 22788.99,2838.96 22673.51,2605.67 22558.05,2372.37 22673.51,2139.07 "/>
  <polygon class="fil1" points="23590.87,1891.64 23706.34,2124.94 23821.81,2358.24 23706.34,2591.54 23590.87,2824.83 23475.39,2591.54 23359.92,2358.24 23475.39,2124.94 "/>
  <polygon class="fil0" points="6152.63,4811.02 6152.63,0.18 6269.36,0.18 6269.36,4811.02 "/>
  <path class="fil2" d="M5654.12 4686.01l239.2 0c23.91,0 42.33,-8.82 55.24,-26.52 12.9,-17.66 19.36,-43.61 19.36,-77.83 0,-34.21 -6.46,-60.43 -19.36,-78.67 -12.91,-18.25 -31.33,-27.39 -55.24,-27.39l-239.2 0 0 -146.27 238.62 0c35.69,0 65.87,11.4 90.55,34.22 24.68,22.81 43.28,53.45 55.81,91.95 12.52,38.5 18.8,81.4 18.8,128.72 0,47.34 -6.18,89.68 -18.52,127.01 -12.34,37.36 -30.94,66.89 -55.81,88.54 -24.86,21.67 -55.14,32.5 -90.83,32.5l-238.62 0 0 -146.27zm399.79 -1327.76l0 146.27 -246.59 244.62 246.59 0 0 146.25 -399.79 0 0 -146.25 247.74 -244.62 -247.74 0 0 -146.27 399.79 0zm-399.79 -869.33l78.03 0 0 159.1 321.76 0 0 146.27 -321.76 0 0 159.08 -78.03 0 0 -464.44zm399.79 -711.08l-150.92 124.89 0 35.06 150.92 0 0 146.27 -399.79 0 0 -245.49c0,-47.34 5.5,-87.66 16.51,-121.01 11.01,-33.37 26.11,-58.31 45.28,-74.84 19.17,-16.55 40.52,-24.81 64.06,-24.81 26.58,0 50.31,11.25 71.19,33.78 20.88,22.54 35.69,55.75 44.41,99.65l158.33 -138.56 0 165.06zm-219.83 159.95l0 -90.66c0,-26.8 -4.37,-46.91 -13.1,-60.3 -8.74,-13.41 -21.08,-20.09 -37.02,-20.09 -15.2,0 -27.14,6.69 -35.88,20.09 -8.72,13.39 -13.1,33.5 -13.1,60.3l0 90.66 99.09 0zm-101.94 -888.98l80.86 0 0 -195.87 75.19 0 0 195.87 87.69 0 0 -221.53 78.03 0 0 367.78 -399.79 0 0 -367.78 78.03 0 0 221.53zm-78.03 -1038.68l78.03 0 0 244.62 84.27 0 0 -183.04 75.75 0 0 183.04 161.74 0 0 146.27 -399.79 0 0 -390.88z"/>
  <path class="fil3" d="M8249.58 4826.99c-311.41,0 -590.09,-55.29 -836.06,-165.85 -245.97,-110.58 -438.91,-264.02 -578.82,-460.34 -139.91,-196.33 -212.1,-423.1 -216.62,-680.36l656.65 0c22.58,221.14 113.96,407.31 274.18,558.49 160.21,151.19 393.78,226.79 700.67,226.79 293.35,0 524.65,-73.35 693.88,-220.02 169.25,-146.68 253.87,-335.09 253.87,-565.26 0,-180.52 -49.64,-327.2 -148.93,-440.03 -99.29,-112.83 -223.41,-198.58 -372.33,-257.25 -148.94,-58.66 -349.77,-121.85 -602.51,-189.54 -311.39,-81.23 -560.74,-162.47 -748.04,-243.72 -187.31,-81.23 -347.52,-208.72 -480.66,-382.49 -133.14,-173.75 -199.7,-407.3 -199.7,-700.65 0,-257.25 65.44,-485.16 196.31,-683.74 130.89,-198.58 314.79,-352.03 551.74,-460.34 236.93,-108.31 508.86,-162.47 815.75,-162.47 442.28,0 804.46,110.56 1086.52,331.7 282.08,221.16 441.16,514.51 477.26,880.07l-676.96 0c-22.58,-180.54 -117.35,-339.62 -284.33,-477.28 -166.98,-137.64 -388.12,-206.47 -663.42,-206.47 -257.25,0 -467.12,66.56 -629.59,199.7 -162.47,133.14 -243.72,319.31 -243.72,558.51 0,171.49 48.52,311.39 145.56,419.72 97.02,108.31 216.62,190.68 358.8,247.08 142.16,56.42 341.86,120.73 599.11,192.94 311.41,85.75 561.88,170.37 751.44,253.85 189.54,83.5 352.03,212.12 487.41,385.87 135.39,173.75 203.08,409.57 203.08,707.44 0,230.18 -60.92,446.8 -182.77,649.88 -121.85,203.1 -302.37,367.83 -541.57,494.2 -239.2,126.37 -521.26,189.54 -846.21,189.54zm2247.53 -2410.01c0,-460.34 103.79,-874.4 311.39,-1242.24 207.62,-367.82 490.82,-655.52 849.59,-863.13 358.8,-207.6 757.09,-311.39 1194.85,-311.39 514.49,0 963.56,124.1 1347.16,372.33 383.62,248.22 663.44,600.24 839.44,1056.06l-737.88 0c-130.89,-284.33 -319.31,-503.2 -565.28,-656.65 -245.97,-153.45 -540.44,-230.18 -883.44,-230.18 -329.45,0 -625.07,76.73 -886.83,230.18 -261.76,153.45 -467.11,371.2 -616.03,653.26 -148.94,282.06 -223.41,612.66 -223.41,991.75 0,374.6 74.46,702.92 223.41,985 148.93,282.06 354.28,499.82 616.03,653.26 261.76,153.45 557.38,230.18 886.83,230.18 343.01,0 637.48,-75.6 883.44,-226.79 245.97,-151.18 434.39,-368.95 565.28,-653.26l737.88 0c-176,451.3 -455.82,799.94 -839.44,1045.91 -383.61,245.97 -832.67,368.95 -1347.16,368.95 -437.76,0 -836.06,-102.67 -1194.85,-308.02 -358.78,-205.33 -641.98,-490.8 -849.59,-856.36 -207.6,-365.56 -311.39,-778.5 -311.39,-1238.85zm9091.67 -2355.84l0 4718.46 -616.05 0 0 -2139.22 -2403.22 0 0 2139.22 -616.05 0 0 -4718.46 616.05 0 0 2071.52 2403.22 0 0 -2071.52 616.05 0zm3188.51 4765.85c-437.76,0 -837.17,-102.67 -1198.24,-308.02 -361.05,-205.33 -646.5,-491.92 -856.36,-859.75 -209.85,-367.82 -314.78,-781.88 -314.78,-1242.24 0,-460.34 104.93,-874.4 314.78,-1242.24 209.87,-367.82 495.32,-654.4 856.36,-859.75 361.06,-205.33 760.47,-308.01 1198.24,-308.01 442.3,0 843.96,102.67 1205,308.01 361.05,205.35 645.38,490.82 852.98,856.36 207.6,365.56 311.41,780.78 311.41,1245.62 0,464.86 -103.81,880.06 -311.41,1245.62 -207.6,365.56 -491.93,651.03 -852.98,856.36 -361.05,205.35 -762.71,308.02 -1205,308.02zm0 -534.8c329.47,0 626.2,-76.73 890.21,-230.18 264.02,-153.45 471.62,-372.33 622.82,-656.65 151.19,-284.33 226.78,-613.78 226.78,-988.38 0,-379.09 -75.58,-709.69 -226.78,-991.75 -151.19,-282.06 -357.66,-499.82 -619.43,-653.26 -261.76,-153.45 -559.63,-230.18 -893.6,-230.18 -333.97,0 -631.84,76.73 -893.6,230.18 -261.76,153.45 -468.24,371.2 -619.42,653.26 -151.19,282.06 -226.79,612.66 -226.79,991.75 0,374.6 75.6,704.05 226.79,988.38 151.18,284.32 358.8,503.2 622.8,656.65 264.02,153.45 560.76,230.18 890.21,230.18zm5320.97 534.8c-437.76,0 -837.17,-102.67 -1198.24,-308.02 -361.05,-205.33 -646.5,-491.92 -856.36,-859.75 -209.85,-367.82 -314.78,-781.88 -314.78,-1242.24 0,-460.34 104.93,-874.4 314.78,-1242.24 209.87,-367.82 495.32,-654.4 856.36,-859.75 361.06,-205.33 760.47,-308.01 1198.24,-308.01 442.3,0 843.96,102.67 1205,308.01 361.05,205.35 645.38,490.82 852.98,856.36 207.6,365.56 311.41,780.78 311.41,1245.62 0,464.86 -103.81,880.06 -311.41,1245.62 -207.6,365.56 -491.93,651.03 -852.98,856.36 -361.05,205.35 -762.71,308.02 -1205,308.02zm0 -534.8c329.47,0 626.2,-76.73 890.21,-230.18 264.02,-153.45 471.62,-372.33 622.82,-656.65 151.19,-284.33 226.78,-613.78 226.78,-988.38 0,-379.09 -75.58,-709.69 -226.78,-991.75 -151.19,-282.06 -357.66,-499.82 -619.43,-653.26 -261.76,-153.45 -559.63,-230.18 -893.6,-230.18 -333.97,0 -631.84,76.73 -893.6,230.18 -261.76,153.45 -468.24,371.2 -619.42,653.26 -151.19,282.06 -226.79,612.66 -226.79,991.75 0,374.6 75.6,704.05 226.79,988.38 151.18,284.32 358.8,503.2 622.8,656.65 264.02,153.45 560.76,230.18 890.21,230.18zm3797.81 -13.54l1651.8 0 0 500.95 -2267.85 0 0 -4718.46 616.05 0 0 4217.51z"/>
  <polygon class="fil0" points="5436.5,4811.02 5436.5,0.18 5553.22,0.18 5553.22,4811.02 "/>
 </g>
</svg>
